<?xml version="1.0" encoding="utf-8"?>
<!-- Generator: Adobe Illustrator 24.3.0, SVG Export Plug-In . SVG Version: 6.00 Build 0)  -->
<svg version="1.1" id="Layer_1" xmlns="http://www.w3.org/2000/svg" xmlns:xlink="http://www.w3.org/1999/xlink" x="0px" y="0px"
	 viewBox="0 0 400 400" enable-background="new 0 0 400 400" xml:space="preserve">
<g>
	<g>
		<g>
			<path fill="#A880B2" d="M146.077,145.004c-17.707,15.302-28.95,37.863-28.95,63.093c0,28.265,14.097,53.203,35.603,68.296
				c13.551,9.503,30.014,15.125,47.815,15.125V124.677C179.707,124.678,160.697,132.378,146.077,145.004z"/>
		</g>
		<g>
			<path fill="#B999C1" d="M169.368,276.393c-21.506-15.092-35.603-40.031-35.603-68.296c0-25.231,11.243-47.791,28.95-63.093
				c10.62-9.172,23.562-15.722,37.83-18.634v-1.692c-20.838,0.001-39.848,7.701-54.468,20.327
				c-17.707,15.302-28.95,37.863-28.95,63.093c0,28.265,14.097,53.203,35.603,68.296c13.551,9.503,30.014,15.125,47.815,15.125
				v-1.734C189.145,287.456,178.572,282.848,169.368,276.393z"/>
		</g>
		<g>
			<path fill="#8EC0D6" d="M243.019,279.805c24.489-14.534,40.943-41.165,40.943-71.708c0-32.838-19.024-61.164-46.615-74.777
				c-11.107-5.48-23.574-8.644-36.796-8.644c0,0-0.003,0-0.006,0v166.841c0.003,0,0.006,0,0.006,0
				C216.084,291.518,230.57,287.193,243.019,279.805z"/>
		</g>
		<g>
			<path fill="#9AE8CE" d="M283.962,208.115c0-32.847-19.024-61.17-46.615-74.783c3.344,18.085,5.731,39.218-4.112,48.816
				c-26.616,25.949-8.313,36.279,0.904,52.991c9.79,17.739,9.182,29.975,8.88,44.684
				C267.508,265.279,283.962,238.645,283.962,208.115z"/>
		</g>
		<g>
			<path fill="#AEF4DB" d="M252.209,273.486c0.139-12.079-0.641-23.21-8.995-38.347c-9.217-16.711-27.52-27.042-0.904-52.991
				c8.788-8.57,7.822-26.333,5.134-42.917c-3.214-2.189-6.585-4.165-10.097-5.899c3.344,18.085,5.731,39.218-4.112,48.816
				c-26.616,25.949-8.313,36.279,0.904,52.991c9.79,17.739,9.182,29.975,8.88,44.684C246.23,277.914,249.293,275.79,252.209,273.486
				z"/>
		</g>
		<g>
			<path fill="#C09DC9" d="M160.863,234.944c-7.288-12.138-13.42-23.851,8.434-53.637c9.813-13.385-7.034-24.419-23.219-36.291
				c-17.707,15.299-28.95,37.86-28.95,63.099c0,28.265,14.097,53.194,35.603,68.287
				C166.242,264.807,166.319,244.052,160.863,234.944z"/>
		</g>
		<g>
			<path fill="#CFB4D8" d="M159.442,268.183c-15.799-15.172-25.677-36.454-25.677-60.086c0-21.63,8.28-41.281,21.795-56.095
				c-3.049-2.313-6.275-4.632-9.483-6.987c-17.704,15.296-28.947,37.854-28.95,63.09c0.003,28.262,14.1,53.195,35.603,68.287
				c0.003,0,0.003,0.003,0.006,0.003C155.534,273.994,157.725,271.185,159.442,268.183z"/>
		</g>
		<g>
			<path fill="#FFDA88" d="M112.746,273.214c-11.181,0-20.244-9.06-20.244-20.241c0-4.236,1.309-8.168,3.533-11.421
				c-9.382,1.764-16.489,9.985-16.489,19.881c0,11.181,9.063,20.244,20.244,20.244c6.942,0,13.063-3.497,16.712-8.824
				C115.284,273.081,114.032,273.214,112.746,273.214z"/>
		</g>
		<g>
			<path fill="#FFE2A9" d="M85.847,261.433c0-6.673,3.273-12.528,8.257-16.212c0.537-1.288,1.155-2.532,1.932-3.669
				c-9.382,1.764-16.489,9.985-16.489,19.881c0,11.181,9.063,20.244,20.244,20.244c1.072,0,2.115-0.109,3.14-0.272
				C93.255,279.887,85.847,271.536,85.847,261.433z"/>
		</g>
		<g>
			<path fill="#FFDA88" d="M139.537,295.42h-4.216v-4.213c0-2.573-2.085-4.661-4.659-4.661c-2.573,0-4.661,2.089-4.661,4.661v4.213
				h-4.216c-2.573,0-4.659,2.089-4.659,4.661c0,2.573,2.085,4.661,4.659,4.661h4.216v4.213c0,2.576,2.088,4.661,4.661,4.661
				c2.573,0,4.659-2.085,4.659-4.661v-4.213h4.216c2.573,0,4.661-2.088,4.661-4.661C144.199,297.509,142.11,295.42,139.537,295.42z"
				/>
		</g>
		<g>
			<path fill="#FFDA88" d="M112.466,128.671h-4.216v-4.213c0-2.573-2.085-4.661-4.659-4.661c-2.573,0-4.661,2.088-4.661,4.661v4.213
				h-4.216c-2.573,0-4.659,2.088-4.659,4.661c0,2.573,2.085,4.661,4.659,4.661h4.216v4.213c0,2.576,2.088,4.661,4.661,4.661
				c2.573,0,4.659-2.086,4.659-4.661v-4.213h4.216c2.573,0,4.661-2.089,4.661-4.661
				C117.127,130.759,115.039,128.671,112.466,128.671z"/>
		</g>
		<g>
			<path fill="#FFDA88" d="M142.716,106.479H138.5v-4.212c0-2.573-2.085-4.662-4.658-4.662c-2.573,0-4.661,2.089-4.661,4.662v4.212
				h-4.216c-2.573,0-4.659,2.089-4.659,4.662c0,2.573,2.085,4.661,4.659,4.661h4.216v4.212c0,2.576,2.089,4.662,4.661,4.662
				c2.573,0,4.658-2.086,4.658-4.662v-4.212h4.216c2.573,0,4.661-2.089,4.661-4.661
				C147.377,108.568,145.289,106.479,142.716,106.479z"/>
		</g>
		<g>
			<path fill="#FFDA88" d="M299.708,118.408c0,7.158-5.802,12.965-12.962,12.965c-7.155,0-12.963-5.808-12.963-12.965
				c0-7.158,5.808-12.963,12.963-12.963C293.906,105.445,299.708,111.25,299.708,118.408z"/>
		</g>
		<g>
			<path fill="#FFE2A9" d="M281.351,118.408c0-5.831,3.882-10.707,9.178-12.335c-1.202-0.371-2.458-0.628-3.784-0.628
				c-7.155,0-12.963,5.805-12.963,12.963c0,7.158,5.808,12.965,12.963,12.965c1.326,0,2.582-0.26,3.784-0.629
				C285.233,129.117,281.351,124.241,281.351,118.408z"/>
		</g>
		<g>
			<path fill="#FFDA88" d="M290.444,93.781c0,2.041-1.654,3.698-3.698,3.698l0,0c-2.044,0-3.699-1.657-3.699-3.698v-3.7
				c0-2.041,1.654-3.698,3.699-3.698l0,0c2.044,0,3.698,1.657,3.698,3.698V93.781z"/>
		</g>
		<g>
			<path fill="#FFDA88" d="M290.444,148.035c0,2.041-1.654,3.699-3.698,3.699l0,0c-2.044,0-3.699-1.657-3.699-3.699v-3.698
				c0-2.044,1.654-3.701,3.699-3.701l0,0c2.044,0,3.698,1.657,3.698,3.701V148.035z"/>
		</g>
		<g>
			<path fill="#FFDA88" d="M271.491,98.57c1.441,1.443,1.441,3.784,0,5.23l0,0c-1.448,1.446-3.787,1.443-5.235,0l-2.612-2.616
				c-1.447-1.445-1.447-3.786,0-5.232l0,0c1.442-1.445,3.787-1.443,5.229,0L271.491,98.57z"/>
		</g>
		<g>
			<path fill="#FFDA88" d="M309.852,136.933c1.442,1.442,1.447,3.784,0,5.229l0,0c-1.448,1.448-3.787,1.445-5.229,0l-2.617-2.614
				c-1.447-1.445-1.447-3.787,0-5.232l0,0c1.441-1.448,3.787-1.445,5.229,0L309.852,136.933z"/>
		</g>
		<g>
			<path fill="#FFDA88" d="M307.235,103.8c-1.442,1.444-3.787,1.446-5.229,0l0,0c-1.447-1.446-1.447-3.787,0-5.232l2.612-2.616
				c1.447-1.443,3.787-1.445,5.234,0l0,0c1.447,1.446,1.442,3.789,0,5.232L307.235,103.8z"/>
		</g>
		<g>
			<path fill="#FFDA88" d="M268.873,142.162c-1.442,1.445-3.781,1.448-5.229,0l0,0c-1.447-1.447-1.447-3.787,0-5.232l2.618-2.614
				c1.441-1.445,3.781-1.448,5.229,0l0,0c1.447,1.444,1.441,3.787,0,5.229L268.873,142.162z"/>
		</g>
		<g>
			<path fill="#FFDA88" d="M261.47,115.359c2.044,0,3.698,1.654,3.698,3.698l0,0c0,2.044-1.654,3.699-3.698,3.699h-3.699
				c-2.044,0-3.698-1.654-3.698-3.699l0,0c0-2.044,1.654-3.698,3.698-3.698H261.47z"/>
		</g>
		<g>
			<path fill="#FFDA88" d="M315.725,115.359c2.039,0,3.699,1.654,3.699,3.698l0,0c0,2.044-1.66,3.699-3.699,3.699h-3.698
				c-2.044,0-3.704-1.654-3.704-3.699l0,0c0-2.044,1.66-3.698,3.704-3.698H315.725z"/>
		</g>
		<g>
			<path fill="#F4F4F4" d="M291.944,285.846c-0.685,0-1.353,0.074-2.003,0.201c-2.198-5.643-7.645-9.654-14.067-9.654
				c-7.326,0-13.429,5.211-14.824,12.129c-0.1-0.003-0.195-0.029-0.301-0.029c-5.01,0-9.075,4.062-9.075,9.075
				c0,5.013,4.065,9.075,9.075,9.075c2.547,0,28.395,0,31.195,0c5.743,0,10.398-4.656,10.398-10.398
				C302.343,290.501,297.687,285.846,291.944,285.846z"/>
		</g>
		<g>
			<path fill="#F9F9F9" d="M262.073,297.568c0-5.013,4.065-9.075,9.075-9.075c0.107,0,0.201,0.027,0.301,0.029
				c1.043-5.175,4.723-9.391,9.577-11.19c-1.61-0.588-3.335-0.939-5.152-0.939c-7.326,0-13.429,5.211-14.824,12.129
				c-0.1-0.003-0.195-0.029-0.301-0.029c-5.01,0-9.075,4.062-9.075,9.075c0,5.013,4.065,9.075,9.075,9.075c0.963,0,5.27,0,10.398,0
				C266.138,306.643,262.073,302.581,262.073,297.568z"/>
		</g>
		<g>
			<path fill="#F4F4F4" d="M312.44,248.843c-0.532,0-1.046,0.056-1.548,0.154c-1.696-4.351-5.896-7.444-10.848-7.444
				c-5.654,0-10.357,4.017-11.432,9.353c-0.076,0-0.153-0.021-0.23-0.021c-3.87,0-7.001,3.132-7.001,6.998
				c0,3.864,3.131,6.998,7.001,6.998c1.961,0,21.896,0,24.058,0c4.425,0,8.017-3.592,8.017-8.02
				C320.457,252.432,316.865,248.843,312.44,248.843z"/>
		</g>
		<g>
			<path fill="#F9F9F9" d="M289.51,257.882c0-3.867,3.132-6.998,7.001-6.998c0.077,0,0.154,0.021,0.23,0.021
				c0.801-3.973,3.616-7.208,7.332-8.605c-1.258-0.467-2.606-0.747-4.029-0.747c-5.654,0-10.357,4.017-11.432,9.353
				c-0.076,0-0.153-0.021-0.23-0.021c-3.87,0-7.001,3.132-7.001,6.998c0,3.864,3.131,6.998,7.001,6.998c0.75,0,4.127,0,8.13,0
				C292.642,264.881,289.51,261.746,289.51,257.882z"/>
		</g>
		<g>
			<path fill="#A880B2" d="M196.008,105.013v203.683c0,2.505,2.032,4.538,4.537,4.538V100.475
				C198.04,100.475,196.008,102.506,196.008,105.013z"/>
		</g>
		<g>
			<path fill="#8EC0D6" d="M205.083,308.696V105.013c0-2.507-2.033-4.537-4.538-4.537v212.758
				C203.05,313.233,205.083,311.201,205.083,308.696z"/>
		</g>
	</g>
	<g>
		<g>
			<path fill="#161616" d="M243.019,284.36c-0.789,0-1.577-0.207-2.284-0.617c-1.424-0.83-2.286-2.366-2.254-4.012l0.029-1.43
				c0.26-12.342,0.467-22.091-5.45-35.195c-1.031-2.283-0.015-4.972,2.269-6.003c2.287-1.037,4.969-0.015,6.003,2.269
				c5.439,12.047,6.343,21.987,6.351,31.878c19.76-14.803,31.742-38.3,31.742-63.135c0-27.098-13.601-51.697-36.04-66.157
				c2.479,17.078,2.579,34.114-6.986,43.44c-18.301,17.846-12.608,26.215-7.102,34.312c1.409,2.074,0.871,4.895-1.199,6.304
				c-2.071,1.412-4.892,0.874-6.304-1.199c-7.489-11.013-13.645-24.549,8.271-45.915c8.419-8.209,5.642-29.467,2.821-44.743
				c-0.313-1.687,0.355-3.406,1.722-4.443c1.371-1.037,3.208-1.211,4.747-0.449c30.312,14.956,49.144,45.171,49.144,78.85
				c0,30.823-16.54,59.797-43.165,75.61C244.623,284.147,243.82,284.36,243.019,284.36z"/>
		</g>
		<g>
			<path fill="#161616" d="M152.727,280.939c-0.91,0-1.821-0.272-2.607-0.824c-20.107-14.109-33.496-36.075-36.734-60.263
				c-0.332-2.484,1.412-4.768,3.895-5.099c2.504-0.363,4.768,1.412,5.1,3.893c2.737,20.448,13.572,39.127,29.923,51.806
				c8.861-10.088,8.939-26.043,4.666-33.177c-8.762-14.593-13.689-28.182,8.667-58.653c2.173-2.963,2.152-5.057,1.947-6.375
				c-1.034-6.65-11.255-14.138-21.203-21.391c-13.119,12.404-21.594,28.864-23.989,46.728c-0.332,2.484-2.625,4.257-5.1,3.893
				c-2.484-0.331-4.227-2.614-3.895-5.099c2.849-21.246,13.401-40.704,29.714-54.795c1.6-1.388,3.944-1.48,5.65-0.227l2.766,2.023
				c12.036,8.771,23.405,17.057,25.024,27.473c0.7,4.508-0.51,8.927-3.597,13.137c-20.565,28.028-14.835,37.57-8.202,48.618
				c6.52,10.886,6.221,34.117-9.072,47.239C154.836,280.57,153.783,280.939,152.727,280.939z"/>
		</g>
		<g>
			<path fill="#161616" d="M99.79,286.215c-13.664,0-24.782-11.116-24.782-24.782c0-11.905,8.492-22.141,20.19-24.342
				c1.79-0.328,3.634,0.443,4.637,1.979c1.004,1.539,0.982,3.527-0.053,5.043c-1.793,2.623-2.741,5.687-2.741,8.859
				c0,8.658,7.045,15.704,15.707,15.704c0.944,0,1.899-0.091,2.923-0.284c1.8-0.346,3.633,0.446,4.633,1.985
				c1.001,1.536,0.978,3.527-0.059,5.04C115.614,282.18,107.967,286.215,99.79,286.215z M88.042,251.017
				c-2.479,2.792-3.959,6.458-3.959,10.416c0,8.661,7.046,15.707,15.707,15.707c1.659,0,3.283-0.263,4.821-0.759
				c-9.681-3.374-16.646-12.593-16.646-23.408C87.965,252.317,87.99,251.664,88.042,251.017z"/>
		</g>
		<g>
			<path fill="#161616" d="M139.537,295.42h-4.216v-4.213c0-2.573-2.085-4.661-4.659-4.661c-2.573,0-4.661,2.089-4.661,4.661v4.213
				h-4.216c-2.573,0-4.659,2.089-4.659,4.661c0,2.573,2.085,4.661,4.659,4.661h4.216v4.213c0,2.576,2.088,4.661,4.661,4.661
				c2.573,0,4.659-2.085,4.659-4.661v-4.213h4.216c2.573,0,4.661-2.088,4.661-4.661C144.199,297.509,142.11,295.42,139.537,295.42z"
				/>
		</g>
		<g>
			<path fill="#161616" d="M112.466,128.671h-4.216v-4.213c0-2.573-2.085-4.661-4.659-4.661c-2.573,0-4.661,2.088-4.661,4.661v4.213
				h-4.216c-2.573,0-4.659,2.088-4.659,4.661c0,2.573,2.085,4.661,4.659,4.661h4.216v4.213c0,2.576,2.088,4.661,4.661,4.661
				c2.573,0,4.659-2.086,4.659-4.661v-4.213h4.216c2.573,0,4.661-2.089,4.661-4.661
				C117.127,130.759,115.039,128.671,112.466,128.671z"/>
		</g>
		<g>
			<path fill="#161616" d="M142.716,106.479H138.5v-4.212c0-2.573-2.085-4.662-4.658-4.662c-2.573,0-4.661,2.089-4.661,4.662v4.212
				h-4.216c-2.573,0-4.659,2.089-4.659,4.662c0,2.573,2.085,4.661,4.659,4.661h4.216v4.212c0,2.576,2.089,4.662,4.661,4.662
				c2.573,0,4.658-2.086,4.658-4.662v-4.212h4.216c2.573,0,4.661-2.089,4.661-4.661
				C147.377,108.568,145.289,106.479,142.716,106.479z"/>
		</g>
		<g>
			<path fill="#161616" d="M200.545,296.055c-18.109,0-35.544-5.515-50.423-15.946c-20.1-14.109-33.488-36.07-36.733-60.258
				c-0.332-2.484,1.411-4.768,3.895-5.099c2.481-0.363,4.768,1.409,5.1,3.893c2.908,21.683,14.918,41.378,32.95,54.033
				c12.096,8.481,26.073,13.338,40.673,14.171V129.347c-17.237,1.001-33.767,7.692-46.964,19.092
				c-14.637,12.646-24.102,30.099-26.65,49.144c-0.332,2.481-2.625,4.257-5.099,3.893c-2.484-0.331-4.229-2.614-3.896-5.099
				c2.842-21.243,13.394-40.707,29.714-54.807c16.001-13.819,36.397-21.43,57.433-21.432c1.204,0,2.357,0.479,3.208,1.329
				c0.851,0.851,1.329,2.004,1.329,3.208v166.841C205.083,294.023,203.05,296.055,200.545,296.055z"/>
		</g>
		<g>
			<path fill="#161616" d="M200.551,296.055c-2.507,0-4.537-2.032-4.537-4.537l-0.006-166.841c0-1.204,0.479-2.357,1.329-3.208
				s2.004-1.329,3.208-1.329c13.497,0,26.554,3.066,38.811,9.113c30.312,14.957,49.144,45.168,49.144,78.845
				c0,30.835-16.54,59.806-43.165,75.61l0,0C231.723,291.787,216.237,296.055,200.551,296.055z M205.088,129.344l-0.006,157.503
				c12.496-0.733,24.726-4.478,35.62-10.945l0,0c23.884-14.177,38.722-40.158,38.722-67.805c0-30.197-16.891-57.292-44.087-70.709
				C225.726,132.647,215.57,129.947,205.088,129.344z M243.019,279.805h0.03H243.019z"/>
		</g>
		<g>
			<g>
				<path fill="#161616" d="M200.545,313.233c-2.505,0-4.537-2.033-4.537-4.538V105.013c0-2.507,2.032-4.537,4.537-4.537
					c2.505,0,4.538,2.031,4.538,4.537v203.683C205.083,311.201,203.05,313.233,200.545,313.233z"/>
			</g>
		</g>
		<g>
			<path fill="#161616" d="M286.745,135.911c-9.651,0-17.5-7.852-17.5-17.503c0-9.65,7.849-17.5,17.5-17.5s17.5,7.85,17.5,17.5
				C304.245,128.059,296.396,135.911,286.745,135.911z M286.745,109.983c-4.647,0-8.425,3.78-8.425,8.425
				c0,4.647,3.778,8.428,8.425,8.428c4.647,0,8.425-3.781,8.425-8.428C295.17,113.763,291.392,109.983,286.745,109.983z"/>
		</g>
		<g>
			<path fill="#161616" d="M290.444,93.781c0,2.041-1.654,3.698-3.698,3.698l0,0c-2.044,0-3.699-1.657-3.699-3.698v-3.7
				c0-2.041,1.654-3.698,3.699-3.698l0,0c2.044,0,3.698,1.657,3.698,3.698V93.781z"/>
		</g>
		<g>
			<path fill="#161616" d="M290.444,148.035c0,2.041-1.654,3.699-3.698,3.699l0,0c-2.044,0-3.699-1.657-3.699-3.699v-3.698
				c0-2.044,1.654-3.701,3.699-3.701l0,0c2.044,0,3.698,1.657,3.698,3.701V148.035z"/>
		</g>
		<g>
			<path fill="#161616" d="M271.487,98.57c1.444,1.443,1.444,3.784,0,5.23l0,0c-1.444,1.446-3.787,1.443-5.232,0l-2.614-2.616
				c-1.445-1.445-1.448-3.786,0-5.232l0,0c1.444-1.445,3.787-1.443,5.229,0L271.487,98.57z"/>
		</g>
		<g>
			<path fill="#161616" d="M309.849,136.933c1.444,1.442,1.448,3.784,0,5.229l0,0c-1.445,1.448-3.787,1.445-5.229,0l-2.617-2.614
				c-1.444-1.445-1.447-3.787,0-5.232l0,0c1.444-1.448,3.787-1.445,5.232,0L309.849,136.933z"/>
		</g>
		<g>
			<path fill="#161616" d="M307.232,103.8c-1.441,1.444-3.784,1.446-5.229,0l0,0c-1.447-1.446-1.444-3.787,0-5.232l2.615-2.616
				c1.447-1.443,3.784-1.445,5.234,0l0,0c1.445,1.446,1.442,3.789,0,5.232L307.232,103.8z"/>
		</g>
		<g>
			<path fill="#161616" d="M268.873,142.162c-1.445,1.445-3.784,1.448-5.232,0l0,0c-1.448-1.447-1.445-3.787,0-5.232l2.617-2.614
				c1.442-1.445,3.784-1.448,5.229,0l0,0c1.448,1.444,1.444,3.787,0,5.229L268.873,142.162z"/>
		</g>
		<g>
			<path fill="#161616" d="M261.467,115.359c2.044,0,3.701,1.654,3.701,3.698l0,0c0,2.044-1.657,3.699-3.701,3.699h-3.698
				c-2.042,0-3.699-1.654-3.699-3.699l0,0c0-2.044,1.657-3.698,3.699-3.698H261.467z"/>
		</g>
		<g>
			<path fill="#161616" d="M315.722,115.359c2.041,0,3.698,1.654,3.698,3.698l0,0c0,2.044-1.657,3.699-3.698,3.699h-3.699
				c-2.044,0-3.701-1.654-3.701-3.699l0,0c0-2.044,1.657-3.698,3.701-3.698H315.722z"/>
		</g>
		<g>
			<path fill="#161616" d="M291.945,311.18h-31.195c-7.506,0-13.612-6.106-13.612-13.613c0-6.413,4.458-11.804,10.437-13.237
				c2.91-7.394,10.135-12.475,18.301-12.475c6.989,0,13.27,3.628,16.788,9.471c7.902,0.375,14.218,6.921,14.218,14.918
				C306.88,304.48,300.181,311.18,291.945,311.18z M260.569,293.033c-2.419,0.094-4.357,2.091-4.357,4.534
				c0,2.502,2.035,4.538,4.538,4.538h31.195c3.232,0,5.861-2.629,5.861-5.861c0-3.232-2.629-5.861-5.861-5.861
				c-0.387,0-0.765,0.044-1.129,0.115c-2.151,0.425-4.307-0.759-5.102-2.803c-1.601-4.109-5.462-6.765-9.84-6.765
				c-5.022,0-9.385,3.569-10.375,8.487c-0.437,2.171-2.517,3.767-4.582,3.639C260.826,293.054,260.696,293.045,260.569,293.033z"/>
		</g>
		<g>
			<path fill="#161616" d="M312.437,269.418h-24.058c-6.36,0-11.536-5.176-11.536-11.536c0-5.247,3.521-9.687,8.325-11.081
				c2.517-5.826,8.33-9.787,14.874-9.787c5.577,0,10.602,2.798,13.548,7.344c6.387,0.582,11.403,5.967,11.403,12.502
				C324.992,263.785,319.358,269.418,312.437,269.418z M288.234,255.425c-1.291,0.077-2.316,1.149-2.316,2.458
				c0,1.356,1.105,2.461,2.461,2.461h24.058c1.92,0,3.48-1.563,3.48-3.483c0-2.151-2.109-3.823-4.156-3.409
				c-2.13,0.402-4.301-0.762-5.096-2.806c-1.078-2.768-3.678-4.555-6.623-4.555c-3.379,0-6.316,2.402-6.98,5.71
				c-0.425,2.118-2.286,3.642-4.449,3.642C288.506,255.442,288.37,255.436,288.234,255.425z"/>
		</g>
	</g>
</g>
</svg>
