<svg xmlns="http://www.w3.org/2000/svg" viewBox="0 0 64 64"><defs><style>.cls-6{mix-blend-mode:overlay;fill:#fff}</style></defs><g style="isolation:isolate"><g id="Layer_1" data-name="Layer 1"><path d="M60.27 44.25a29.67 29.67 0 0 1-22.39 16.86 29.23 29.23 0 0 1-4.52.34A29.64 29.64 0 0 1 26.64 3c.7-.15 1.38-.29 2.09-.4a29.64 29.64 0 0 0 26.91 42.02 29.42 29.42 0 0 0 4.63-.37z" style="fill:#fb0" id="Vector"/><path d="M60.27 44.25a29.67 29.67 0 0 1-22.39 16.86 29.23 29.23 0 0 1-4.52.34A29.64 29.64 0 0 1 26.64 3c.7-.15 1.38-.29 2.09-.4a29.64 29.64 0 0 0 26.91 42.02 29.42 29.42 0 0 0 4.63-.37z" style="fill:none;stroke:#000;stroke-linecap:round;stroke-linejoin:round;stroke-width:2px" id="Line"/><path d="M8.73 31.82A29.64 29.64 0 0 1 28.1 4c.19-.49.4-1 .63-1.47-.71.11-1.39.25-2.09.4a29.64 29.64 0 0 0 6.72 58.5c.85 0 1.7 0 2.53-.11a29.64 29.64 0 0 1-27.16-29.5z" id="Shadow"/><g id="Highligth" style="mix-blend-mode:overlay"><path class="cls-6" d="M60.27 44.25a29.42 29.42 0 0 1-4.63.37h-.55a29.62 29.62 0 0 1-22.21 16.49c-.66.1-1.32.17-2 .23.82.07 1.64.11 2.47.11a29.47 29.47 0 0 0 16.1-4.75 29.73 29.73 0 0 0 10.82-12.45zM26 15a29.58 29.58 0 0 1 2.73-12.45c-.71.11-1.39.25-2.09.4A32.18 32.18 0 0 0 23.1 4a29.64 29.64 0 0 0 27.54 40.6c.85 0 1.68 0 2.51-.12A29.63 29.63 0 0 1 26 15z"/></g></g></g></svg>